<?xml version="1.0" encoding="utf-8"?>
<!-- Generator: Adobe Illustrator 27.5.0, SVG Export Plug-In . SVG Version: 6.00 Build 0)  -->
<svg version="1.1" xmlns="http://www.w3.org/2000/svg" xmlns:xlink="http://www.w3.org/1999/xlink" x="0px" y="0px"
	 viewBox="0 0 500 500" style="enable-background:new 0 0 500 500;" xml:space="preserve">
<g id="BACKGROUND">
	<rect style="fill:#FFFFFF;" width="500" height="500"/>
</g>
<g id="OBJECTS">
	<g>
		<path style="fill:#BFE2F6;" d="M424.269,444.056c5.881-3.548,11.159-7.771,15.565-12.847
			c44.617-51.405,19.689-113.412,10.281-172.136c-4.173-26.058,4.426-54.467-6.543-79.367
			c-23.518-53.385-100.907-63.514-151.578-66.537c-10.779-0.643-21.807-0.721-32.929-0.221
			c-41.931,1.887-85.203,11.991-121.488,31.006c-37.246,19.519-66.067,63.193-64.301,106.852
			c0.688,16.996,4.557,32.853-2.992,49.037c-7.057,15.13-21.326,25.576-28.67,40.692c-14.664,30.183-8.569,66.772,17.375,88.022
			c8.169,6.692,17.726,11.689,28.042,15.5H424.269z"/>
		<g>
			<g>
				<g>
					<g>
						<g>
							<g>
								<path style="fill:#81BA7B;" d="M290.537,260.188c6.259-8.221,20.666-13.222,29.181-20.138
									c9.491-7.706,18.863-16.604,30.076-21.357c11.393-4.83,25.2-1.268,37.408-2.439c10.904-1.042,23.381-3.9,33.158-9.492
									c-2.359,1.35-6.775,18.154-8.408,21.524c-2.658,5.489-5.134,11.247-8.614,16.277c-7.661,11.082-18.503,18.555-31.633,21.443
									C344.783,271.935,317.364,261.741,290.537,260.188z"/>
							</g>
							<g>
								<path style="fill:#1A3A72;" d="M263.968,257.793c57.707,2.617,105.107-3.151,146.479-36.077
									c0.227-0.181,0.557-0.143,0.739,0.084c0.181,0.228,0.142,0.557-0.084,0.738c-41.614,33.119-89.274,38.955-147.196,36.331
									L263.968,257.793z"/>
							</g>
						</g>
						<g>
							<g>
								<path style="fill:#21A991;" d="M341.523,307.888c-13.96-10.842-16.847-30.46-30.764-42.032
									c18.533,0.659,33.425-6.073,50.702,3.481c17.151,9.486,22.849,25.882,31.927,41.883c3.974,7.004,8.469,13.24,14.323,18.843
									c-11.101-2.341-21.601-7.985-32.634-10.98C363.608,315.972,351.271,315.456,341.523,307.888z"/>
							</g>
							<g>
								<path style="fill:#1A3A72;" d="M258.634,258.852l0.043-1.347c23.38,0.381,45.743,4.764,66.599,13.072
									c17.236,6.862,34.555,14.878,44.483,26.954c0.237,0.29,0.195,0.715-0.093,0.951c-0.288,0.236-0.713,0.195-0.951-0.093
									c-9.733-11.841-26.871-19.761-43.939-26.556C304.079,263.588,281.842,259.231,258.634,258.852z"/>
							</g>
						</g>
					</g>
					<g>
						<g>
							<g>
								<path style="fill:#81BA7B;" d="M247.971,208.22c-3.482-9.728,0.176-24.533-0.983-35.442
									c-1.29-12.157-3.643-24.864-1.518-36.856c2.159-12.185,12.669-21.821,18.341-32.695c5.068-9.71,9.472-21.73,10.11-32.975
									c-0.154,2.714,11.53,15.574,13.466,18.78c3.154,5.219,6.633,10.434,8.954,16.092c5.118,12.463,5.475,25.625,0.741,38.208
									C287.381,169.137,263.892,186.573,247.971,208.22z"/>
							</g>
							<g>
								<path style="fill:#1A3A72;" d="M231.484,229.193c33.641-46.96,54.634-89.847,49.572-142.479
									c-0.028-0.288,0.184-0.545,0.473-0.574c0.29-0.028,0.545,0.184,0.573,0.473c5.092,52.94-15.985,96.082-49.749,143.219
									L231.484,229.193z"/>
							</g>
						</g>
						<g>
							<g>
								<path style="fill:#21A991;" d="M315.751,191.463c-16.698,5.797-34.72-2.473-52.007,2.891
									c10.652-15.18,13.122-31.335,30.548-40.616c17.3-9.212,34.153-5.055,52.516-3.946c8.038,0.485,15.717,0.114,23.604-1.741
									c-8.012,8.033-18.467,13.76-26.99,21.38C334.563,177.351,327.408,187.414,315.751,191.463z"/>
							</g>
							<g>
								<path style="fill:#1A3A72;" d="M229.465,234.241l-1.106-0.771c13.06-19.396,28.922-35.758,47.253-48.718
									c15.146-10.712,31.304-20.866,46.841-22.61c0.372-0.04,0.706,0.226,0.747,0.596c0.041,0.371-0.225,0.705-0.597,0.747
									c-15.232,1.709-31.212,11.762-46.211,22.37C258.201,198.718,242.431,214.989,229.465,234.241z"/>
							</g>
						</g>
					</g>
					<g>
						<g>
							<g>
								<path style="fill:#81BA7B;" d="M184.117,288.114c-8.785,5.44-24.027,4.959-34.452,8.374
									c-11.618,3.804-23.552,8.763-35.724,9.192c-12.367,0.437-23.988-7.825-35.808-11.097c-10.556-2.925-23.23-4.717-34.36-2.99
									c2.686-0.418,12.818-14.532,15.548-17.095c4.444-4.176,8.816-8.668,13.864-12.121c11.117-7.611,23.914-10.713,37.208-8.716
									C137.656,257.749,159.619,277.072,184.117,288.114z"/>
							</g>
							<g>
								<path style="fill:#1A3A72;" d="M208.074,299.849c-52.957-23.076-99.286-34.635-149.696-18.677
									c-0.276,0.088-0.572-0.066-0.66-0.342c-0.088-0.277,0.066-0.571,0.343-0.659c50.704-16.052,97.3-4.463,150.456,18.696
									L208.074,299.849z"/>
							</g>
						</g>
						<g>
							<g>
								<path style="fill:#21A991;" d="M156.873,204.805c9.161,15.116,4.843,34.47,13.704,50.252
									c-17.073-7.242-33.387-6.279-46.106-21.378c-12.626-14.991-12.086-32.34-14.843-50.529
									c-1.207-7.962-3.175-15.393-6.639-22.718c9.531,6.155,17.318,15.181,26.552,21.922
									C139.139,189.36,150.476,194.252,156.873,204.805z"/>
							</g>
							<g>
								<path style="fill:#1A3A72;" d="M216.752,280.235l-0.522,1.243c-21.699-8.714-41.016-20.803-57.523-36.019
									c-13.643-12.571-26.952-26.248-31.906-41.076c-0.117-0.355,0.074-0.738,0.427-0.855c0.354-0.118,0.736,0.073,0.855,0.427
									c4.857,14.538,18.03,28.062,31.54,40.51C176.005,259.565,195.214,271.583,216.752,280.235z"/>
							</g>
						</g>
					</g>
				</g>
				<g>
					<g>
						<g>
							<g>
								<rect x="212.001" y="354.805" style="fill:#001338;" width="15.184" height="66.656"/>
							</g>
							<g>
								<path style="fill:#001338;" d="M214.316,362.41h10.555c6.458,0,11.694-5.236,11.694-11.694v-25.423h-33.943v25.423
									C202.622,357.175,207.857,362.41,214.316,362.41z"/>
							</g>
							<g>
								<path style="fill:#002748;" d="M165.699,325.294h123.402c6.326,0,11.454-5.128,11.454-11.454l0,0
									c0-6.326-5.128-11.454-11.454-11.454H165.699c-6.326,0-11.454,5.128-11.454,11.454l0,0
									C154.245,320.166,159.373,325.294,165.699,325.294z"/>
							</g>
							<g>
								<defs>
									<path id="SVGID_1_" d="M165.699,325.294h123.402c6.326,0,11.454-5.128,11.454-11.454l0,0
										c0-6.326-5.128-11.454-11.454-11.454H165.699c-6.326,0-11.454,5.128-11.454,11.454l0,0
										C154.245,320.166,159.373,325.294,165.699,325.294z"/>
								</defs>
								<clipPath id="SVGID_00000125574618448813604030000000804801748249965447_">
									<use xlink:href="#SVGID_1_"  style="overflow:visible;"/>
								</clipPath>
								<g style="clip-path:url(#SVGID_00000125574618448813604030000000804801748249965447_);">
									<path style="fill:#003666;" d="M253.051,325.294h123.402c6.326,0,11.454-5.128,11.454-11.454l0,0
										c0-6.326-5.128-11.454-11.454-11.454H253.051c-6.326,0-11.454,5.128-11.454,11.454l0,0
										C241.598,320.166,246.726,325.294,253.051,325.294z"/>
								</g>
							</g>
							<g>
								<g>
									<path style="fill:#002748;" d="M155.217,133.243h66.581c9.885,0,18.078,7.66,18.738,17.52l9.265,137.46
										c0.516,7.664-5.562,14.164-13.246,14.164h-78.312c-6.939,0-12.683-5.391-13.121-12.314l-8.648-136.891
										C135.801,142.375,144.387,133.243,155.217,133.243z"/>
								</g>
							</g>
							<g>
								<defs>
									<path id="SVGID_00000085958455443645581800000014315764915747362750_" d="M155.217,133.243h66.581
										c9.885,0,18.078,7.66,18.738,17.52l9.265,137.46c0.516,7.664-5.562,14.164-13.246,14.164h-78.312
										c-6.939,0-12.683-5.391-13.121-12.314l-8.648-136.891C135.801,142.375,144.387,133.243,155.217,133.243z"/>
								</defs>
								<clipPath id="SVGID_00000087410823538230343180000011247757243135818420_">
									<use xlink:href="#SVGID_00000085958455443645581800000014315764915747362750_"  style="overflow:visible;"/>
								</clipPath>
								<g style="clip-path:url(#SVGID_00000087410823538230343180000011247757243135818420_);">
									<g>
										<path style="fill:#003666;" d="M238.373,133.243h66.581c9.885,0,18.077,7.66,18.738,17.52l9.265,137.46
											c0.517,7.664-5.562,14.164-13.246,14.164h-78.312c-6.939,0-12.683-5.391-13.121-12.314l-8.648-136.891
											C218.958,142.375,227.543,133.243,238.373,133.243z"/>
									</g>
								</g>
							</g>
						</g>
						<g>
							<path style="fill:#001338;" d="M177.191,434.2h84.804c3.518,0,6.369-2.852,6.369-6.369l0,0c0-3.518-2.852-6.369-6.369-6.369
								h-84.804c-3.518,0-6.369,2.852-6.369,6.369l0,0C170.822,431.348,173.673,434.2,177.191,434.2z"/>
						</g>
						<g>
							<path style="fill:#001338;" d="M196.062,434.2h47.062c3.097,0,5.608-2.511,5.608-5.608v-1.522
								c0-3.097-2.511-5.608-5.608-5.608h-47.062c-3.097,0-5.608,2.511-5.608,5.608v1.522
								C190.454,431.689,192.965,434.2,196.062,434.2z"/>
						</g>
						<g>
							<ellipse transform="matrix(1 -0.0015 0.0015 1 -0.6733 0.4075)" cx="264.03" cy="436.994" rx="8.143" ry="8.14"/>
						</g>
						<g>
							<ellipse transform="matrix(1 -0.0015 0.0015 1 -0.6763 0.3749)" cx="241.819" cy="436.994" rx="8.143" ry="8.14"/>
						</g>
						<g>
							<ellipse transform="matrix(1 -0.0016 0.0016 1 -0.6919 0.3131)" cx="197.29" cy="436.994" rx="8.143" ry="8.14"/>
						</g>
						<g>
							<ellipse transform="matrix(1 -0.0015 0.0015 1 -0.6764 0.2716)" cx="175.079" cy="436.994" rx="8.143" ry="8.14"/>
						</g>
					</g>
					<g>
						<g>
							<path style="fill:#FDBA90;" d="M293.506,201.878c0,0,4.174-4.067,21.626-1.554c17.451,2.513,31.691,4.839,31.691,4.839
								l1.675,15.128l-35.462,1.251h-5.305c0,0-9.309,0.413-16.688-7.486C283.663,206.159,289.334,202.038,293.506,201.878z"/>
						</g>
						<g>
							<path style="fill:#85B7DE;" d="M275.91,214.539c0,0,4.382,7.088,12.13,0c7.748-7.088,15.077-22.035,9.232-26.852
								C289.406,181.203,272.575,196.916,275.91,214.539z"/>
						</g>
						<g>
							<path style="fill:#FDBA90;" d="M283.167,174.995l24.557,24.689l-15.287,15.631l-18.037-16.268
								C274.401,199.048,273.269,167.948,283.167,174.995z"/>
						</g>
						<g>
							<path style="fill:#FD8479;" d="M288.522,211.784c0,0-1.091-11.872,11.566-19.776l-5.857-5.617
								c0,0-10.299,0.077-16.587,16.013L288.522,211.784z"/>
						</g>
						<g>
							<path style="fill:#FFFFFF;" d="M297.273,187.687c0,0-2.264-0.6-18.43-19.636c-14.842-17.477-24.517-21.568-24.517-21.568
								c-42.109-1.462,21.585,68.056,21.585,68.056S283.299,186.426,297.273,187.687L297.273,187.687z"/>
						</g>
					</g>
					<g>
						<g>
							<path style="fill:#00356B;" d="M202.817,259.433c0,0,21.003,23.818,71.544,13.487l-1.489-13.487
								C272.872,259.433,203.03,243.433,202.817,259.433z"/>
						</g>
						<g>
							<path style="fill:#FFFFFF;" d="M201.347,241.787v13.682c0,0,23.041,15.258,68.699,8.125l-1.765-38.989
								C268.281,224.604,201.347,231.747,201.347,241.787z"/>
						</g>
						<g>
							<path style="fill:#FFFFFF;" d="M218.48,140.897c0,0-30.371,1.347-27.184,23.683c3.273,22.938,10.296,78.882,10.296,78.882
								l78.9,6.143l-13.618-75.949c0,0-1.786-31.865-28.782-32.768C238.091,140.889,225.073,126.309,218.48,140.897z"/>
						</g>
					</g>
					<g>
						<g>
							<path style="fill:#005582;" d="M345.217,408.824c0,0,1.745,7.336,0.005,13.619c-1.74,6.283,1.37,9.214,8.614,9.214
								c7.244,0,37.8,0,37.8,0s8.399-2.091-4.167-8.793c-12.566-6.702-12.566-6.702-12.566-6.702l-6.721-5.028L345.217,408.824z"/>
						</g>
						<g>
							<path style="fill:#FD8479;" d="M340.109,393.542l5.892,17.593h22.181l-7.326-47.058
								C360.857,364.077,335.055,385.163,340.109,393.542z"/>
						</g>
						<g>
							<path style="fill:#00356B;" d="M273.271,263.047c0,0,58.292-4.665,67.387,8.747c9.095,13.412,25.626,120.494,25.626,120.494
								l-28.66,8.378c0,0-32.771-85.175-29.9-111.55S246.49,279.979,273.271,263.047z"/>
						</g>
						<g>
							<path style="fill:#007FA6;" d="M369.568,412.171c0,0-5.993,4.192,1.546,8.07c7.539,3.878,14.848,7.908,17.476,3.241
								L369.568,412.171z"/>
						</g>
						<g>
							<path style="fill:#07BFD0;" d="M345.255,422.444c0,0-1.995,4.747,8.582,4.747s32.355,0,32.355,0h7.399
								c0,0,4.886,4.468-3.211,4.468c-8.097,0-38.254,0-38.254,0S342.293,432.496,345.255,422.444z"/>
						</g>
					</g>
					<g>
						<path style="fill:#F99F84;" d="M172.55,196.729l-6.359,19.583l20.306,9.424l9.069-21.892
							C195.565,203.844,186.79,191.982,172.55,196.729z"/>
					</g>
					<g>
						<g>
							<g>
								<path style="fill:#F99F84;" d="M274.361,361.372l-11.437,51.219l22.252,1.206l16.994-43.987
									C302.171,369.809,274.489,331.213,274.361,361.372z"/>
							</g>
							<g>
								<path style="fill:#005582;" d="M202.734,259.292c0,0-7.714,41.55,21.325,46.017c29.039,4.468,93.864,8.935,93.864,8.935
									v-40.487C317.923,273.758,276.33,256.833,202.734,259.292z"/>
							</g>
							<g>
								<path style="fill:#005582;" d="M311.521,271.794c0,0-27.118,2.313-37.159,54.173c-10.041,51.86-9.555,59.737-9.555,59.737
									l31.198,9.58c0,0,20.268-53.944,26.805-69.924C329.346,309.38,342.191,279.284,311.521,271.794z"/>
							</g>
							<g>
								<g>
									<path style="fill:#005582;" d="M262.925,406.978c0,0-2.382,9.601-4.121,15.884c-1.74,6.283,1.37,9.214,8.614,9.214
										c7.244,0,37.8,0,37.8,0s8.399-2.091-4.167-8.793c-12.566-6.702-13.619-10.966-13.619-10.966l0,0L262.925,406.978z"/>
								</g>
								<g>
									<path style="fill:#007FA6;" d="M287.432,412.318c0,0-10.276,4.465-2.737,8.342c7.539,3.878,14.848,7.908,17.476,3.241
										L287.432,412.318z"/>
								</g>
								<g>
									<path style="fill:#07BFD0;" d="M258.836,422.862c0,0-1.995,4.747,8.582,4.747s32.355,0,32.355,0h7.399
										c0,0,4.886,4.468-3.211,4.468c-8.097,0-38.254,0-38.254,0S255.873,432.914,258.836,422.862z"/>
								</g>
							</g>
							<g>
								<path style="fill:#00EFE9;" d="M278.869,390.058l-0.912-0.351c0.274-0.711,27.381-71.338,29.281-89.474
									c0.172-1.641-0.331-3.121-1.538-4.525c-8.338-9.7-46.965-11.493-70.044-12.564c-3.419-0.159-6.648-0.309-9.333-0.464
									c-2.021-0.117-3.724-0.989-5.061-2.592c-5.035-6.035-3.326-20.484-3.25-21.096l0.97,0.119
									c-0.018,0.146-1.734,14.641,3.031,20.352c1.157,1.387,2.626,2.141,4.367,2.242c2.679,0.155,5.906,0.305,9.322,0.464
									c11.498,0.534,27.246,1.265,40.869,3.082c16.287,2.173,26.058,5.385,29.871,9.821c1.372,1.597,1.968,3.368,1.769,5.264
									C306.296,318.598,279.143,389.345,278.869,390.058z"/>
							</g>
						</g>
					</g>
					<g>
						<g>
							<g>
								<path style="fill:#0CD8E4;" d="M269.053,262.378c0-2.733-2.216-4.949-4.949-4.949h86.488c2.733,0,4.949,2.216,4.949,4.949
									s-2.216,4.949-4.949,4.949h-86.488C266.838,267.327,269.053,265.111,269.053,262.378z"/>
							</g>
							<g>
								<path style="fill:#059AC4;" d="M200.431,262.378c0-2.733,2.216-4.949,4.949-4.949h58.725c2.733,0,4.949,2.216,4.949,4.949
									s-2.216,4.949-4.949,4.949H205.38C202.646,267.327,200.431,265.111,200.431,262.378z"/>
							</g>
							<g>
								<path style="fill:#0CD8E4;" d="M365.237,249.84c-0.391,2.781-2.962,5.036-5.743,5.036h-90.517
									c-2.781,0-4.719-2.254-4.328-5.036l10.593-75.376c0.391-2.781,2.962-5.036,5.743-5.036h90.517
									c2.781,0,4.719,2.255,4.328,5.036L365.237,249.84z"/>
							</g>
							<g>
								<path style="fill:#059AC4;" d="M273.752,257.105c0-1.232-0.998-2.23-2.23-2.23h85.742c1.232,0,2.23,0.998,2.23,2.23
									c0,1.231-0.998,2.229-2.23,2.229h-85.742C272.753,259.334,273.752,258.336,273.752,257.105z"/>
							</g>
							<g>
								<path style="fill:#059AC4;" d="M199.677,257.105c0-1.232,0.998-2.23,2.23-2.23h69.615c1.231,0,2.23,0.998,2.23,2.23
									c0,1.231-0.998,2.229-2.23,2.229h-69.615C200.676,259.334,199.677,258.336,199.677,257.105z"/>
							</g>
						</g>
					</g>
					<path style="fill:#BFE2F6;" d="M207.786,214.036c7.879,0.652,15.866,0.628,23.744-0.027
						c13.064-1.085,25.933-3.733,38.586-7.125c-0.035-2.572-0.03-5.328-0.005-8.157c-4.528,1.302-9.077,2.528-13.674,3.606
						c-14.735,3.453-29.97,5.648-45.135,5.116c-3.657-0.128-7.337-0.383-11.002-0.791c0.275,1.533,0.598,3.087,0.973,4.659
						c0,0-0.25,0.685-0.616,1.862C203.016,213.55,205.39,213.838,207.786,214.036z"/>
					<path style="fill:#BFE2F6;" d="M210.066,193.786c-3.484,0.321-7.01,0.657-10.542,0.86c0.033,2.128,0.141,4.342,0.346,6.629
						c2.661,0.157,5.338,0.155,7.992,0.097c7.561-0.165,15.083-0.864,22.572-1.896c13.553-1.868,27.08-4.298,40.391-7.51
						c0.055-3.234,0.113-6.406,0.145-9.356c-5.311,1.352-10.64,2.635-15.993,3.808C240.197,189.655,225.143,192.394,210.066,193.786
						z"/>
					<g>
						<path id="XMLID_1_" style="fill:#AE4B39;" d="M241.432,110.361c0.292-3.923-2.651-7.34-6.574-7.633
							c-2.941-0.219-5.597,1.38-6.867,3.847c-3.476-0.39-7.705-0.012-11.299,2.79c0,0-4.745-0.125-5.807,4.933
							c-1.062,5.058,2.929,12.593,6.586,14.71c3.657,2.117,6.472-1.977,6.472-1.977l0.595-6.057c0,0,7.628-1.896,10.701-4.077
							C238.527,116.477,241.177,113.794,241.432,110.361z"/>
						<g>
							<path style="fill:#AE4B39;" d="M217.332,110.017c-0.571-0.722-1-1.538-1.256-2.423c-0.107-0.369,0.468-0.527,0.574-0.158
								c0.226,0.781,0.598,1.522,1.103,2.16c0.1,0.126,0.123,0.298,0,0.421C217.65,110.12,217.432,110.144,217.332,110.017
								L217.332,110.017z"/>
						</g>
						<g>
							<path style="fill:#01180C;" d="M232.295,138.875c-0.223,0.576,0.333,1.341-0.435,1.784c-2.773-1.29-5.112-3.109-6.864-5.689
								c2.218,1.395,4.621,2.144,7.222,2.238C232.243,137.764,232.269,138.32,232.295,138.875z"/>
							<g>
								<path style="fill:#F99F84;" d="M221.123,123.318c0.367-0.31,0.347-0.763,0.402-1.171c0.383-2.852,0.425-5.72,0.388-8.592
									c-0.007-0.531-0.02-1.064,0.015-1.595c0.023-0.35,0.001-0.776,0.368-0.939c0.398-0.177,0.634,0.203,0.873,0.447
									c0.422,0.431,0.818,0.885,1.194,1.358c0.739,0.93,1.673,1.637,2.681,2.238c1.282,0.765,2.034,0.565,2.832-0.685
									c0.681-1.067,1.413-1.493,2.37-1.015c1.793,0.896,3.365,2.155,4.911,3.431c1.096,2.809,2.629,7.911,1.542,13.389
									c-0.347,1.748-0.915,4.425-2.995,5.798c-1.549,1.023-3.486,1.226-3.486,1.226c-0.527,0.037-1.113,0.042-1.746-0.012
									c-1.922-0.163-3.45-0.795-4.473-1.342c0.716,0.799,1.615,1.735,2.792,2.604c1.052,0.777,2.2,1.477,3.373,2.147
									c0.15,0.291,0.364,0.77,0.493,1.39c0.449,2.154-0.467,4.395-1.905,5.807c-0.314,0.308-0.891,0.865-1.815,1.245
									c-1.94,0.799-3.81,0.162-4.691-0.138c-3.162-1.076-6.132-4.063-6.373-7.507c-0.04-0.562,0.001-1.038,0.048-1.381
									c0.014-0.412,0.183-0.784,0.314-1.166c0.235-0.971,0.531-2.341,0.775-4C219.492,131.575,220.758,123.249,221.123,123.318z"
									/>
								<g>
									<path style="fill:#01180C;" d="M225.752,121.485c-0.806-0.186-1.002-0.723-0.596-1.279c0.469-0.643,2.234-1.258,3.01-1.048
										c0.697,0.188,0.925,0.828,0.41,1.307C227.751,121.232,226.723,121.493,225.752,121.485z"/>
									<path style="fill:#01180C;" d="M235.1,120.003c-0.436-0.078-0.863-0.191-1.211-0.48c-0.529-0.44-0.434-1.076,0.226-1.26
										c0.895-0.249,1.742-0.04,2.496,0.493c0.259,0.184,0.399,0.465,0.305,0.794c-0.093,0.328-0.355,0.461-0.674,0.522
										C235.853,120.147,235.477,120.074,235.1,120.003z"/>
									<path style="fill:#01180C;" d="M234.968,126.023c-0.172,0.607-0.831,1.084-1.566,1.484
										c-0.148,0.081-0.349,0.067-0.442-0.095c-0.115-0.2,0.087-0.283,0.21-0.376c0.391-0.298,0.86-0.498,1.151-0.92
										c0.195-0.283,0.351-0.597,0.118-0.908c-0.204-0.271-0.527-0.242-0.835-0.178c-1.13,0.232-1.13,0.231-1.234-0.912
										c-0.047-0.518-0.089-1.037-0.141-1.554c-0.02-0.196-0.069-0.427,0.183-0.471c0.344-0.06,0.301,0.266,0.326,0.45
										c0.072,0.515,0.12,1.034,0.145,1.554c0.021,0.44,0.174,0.517,0.619,0.439C234.681,124.325,235.228,124.797,234.968,126.023
										z"/>
									<path style="fill:#01180C;" d="M231.859,130.32c-1.321-0.262-2.151-1.106-2.184-2.063
										c-0.007-0.191-0.035-0.425,0.209-0.474c0.291-0.058,0.249,0.198,0.298,0.378c0.465,1.708,2.077,2.205,3.422,1.057
										c0.14-0.119,0.262-0.378,0.46-0.217c0.217,0.175,0.049,0.404-0.085,0.576C233.372,130.354,232.53,130.365,231.859,130.32z"
										/>
									<path style="fill:#01180C;" d="M228.624,123.668c-0.133,0.463-0.385,0.811-0.88,0.693
										c-0.538-0.128-0.719-0.577-0.635-1.095c0.075-0.461,0.352-0.784,0.857-0.671
										C228.523,122.721,228.642,123.176,228.624,123.668z"/>
									<path style="fill:#01180C;" d="M235.829,122.567c-0.135,0.433-0.397,0.746-0.892,0.603
										c-0.541-0.156-0.678-0.597-0.575-1.11c0.094-0.468,0.393-0.77,0.874-0.627
										C235.757,121.587,235.892,122.041,235.829,122.567z"/>
								</g>
								<g>
									<path style="fill:#AE4B39;" d="M217.705,109.677c-2.125-0.3-4.294,0.035-6.232,0.954c-0.347,0.165-0.568-0.389-0.222-0.553
										c2.026-0.961,4.315-1.305,6.534-0.992C218.164,109.141,218.084,109.731,217.705,109.677L217.705,109.677z"/>
								</g>
								<g>
									<path style="fill:#AE4B39;" d="M233.819,116.465c0.012-1.002-1.17-1.112-1.886-0.854c-0.71,0.256-1.296,0.76-1.975,1.079
										c-1.244,0.585-2.596,0.341-3.76-0.321c-2.225-1.266-3.632-3.704-3.859-6.22c-0.034-0.382,0.562-0.379,0.596,0
										c0.24,2.669,2.17,5.74,4.986,6.242c1.655,0.295,2.633-1.05,4.109-1.432c1.063-0.275,2.4,0.253,2.384,1.507
										C234.41,116.848,233.814,116.849,233.819,116.465L233.819,116.465z"/>
								</g>
								<g>
									<g>
										<g>
											<path style="fill:#F99F84;" d="M222.081,126.059c0.339-2.437-0.882-4.621-2.727-4.878
												c-1.846-0.257-3.617,1.51-3.957,3.947c-0.339,2.437,0.882,4.621,2.727,4.878
												C219.97,130.263,221.742,128.495,222.081,126.059z"/>
										</g>
									</g>
									<g>
										<path d="M219.732,127.539c-0.58,0.001-1.093-0.077-1.639-0.383c-0.264-0.156-0.514-0.382-0.688-0.67
											c-0.159-0.29-0.254-0.613-0.259-0.908c-0.017-0.297,0.013-0.603,0.151-0.927c0.127-0.324,0.423-0.615,0.729-0.752
											c0.632-0.272,1.162-0.22,1.72-0.106c0.29,0.059,0.477,0.342,0.418,0.632c-0.059,0.29-0.343,0.477-0.633,0.418
											c-0.002,0-0.004-0.001-0.007-0.001l-0.045-0.01c-0.328-0.073-0.767-0.067-0.976,0.047
											c-0.197,0.09-0.266,0.278-0.252,0.632c0.022,0.325,0.142,0.518,0.406,0.671c0.252,0.153,0.681,0.223,1.01,0.214
											l0.045-0.001c0.316-0.009,0.579,0.24,0.588,0.556c0.009,0.316-0.24,0.579-0.556,0.588
											C219.743,127.539,219.736,127.539,219.732,127.539z"/>
									</g>
								</g>
							</g>
						</g>
					</g>
					<path style="fill:#FFFFFF;" d="M274.491,427.627c-0.181-0.036-0.373-0.078-0.502-0.209c-0.125-0.128-0.164-0.315-0.198-0.491
						c-0.442-2.326-0.884-4.652-1.326-6.978c-0.143-0.753-0.301-1.54-0.785-2.135c-0.524-0.645-1.345-0.961-2.144-1.189
						c-1.73-0.495-3.533-0.711-5.245-1.266c-0.526-0.171-1.022-0.505-1.439-0.909c-0.173-0.113-0.336-0.232-0.488-0.354
						c0.108-0.838,0.231-1.715,0.368-2.589c0,0,0.001,0,0.001,0c0.328,0.027,0.709,0.088,1.153,0.193
						c4.442,1.055,7.217,2.984,12.394,3.087c0.718,0.014,1.486,0.013,2.074,0.283c0.536,0.246,0.819,0.672,1.069,1.08
						c2.31,3.766,3.91,7.746,4.751,11.815c-1.493-0.182-2.134-0.399-3.627-0.581c-0.265-0.032-0.546-0.07-0.733-0.2
						c-0.181-0.126-0.235-0.312-0.281-0.488c-0.605-2.32-1.21-4.639-1.815-6.958c-0.196-0.751-0.414-1.536-1.112-2.122
						c-0.45-0.377-1.356-0.624-2.264-0.807c1.522,3.661,2.604,7.504,3.205,11.423C276.529,428.029,275.51,427.828,274.491,427.627z"
						/>
					<path style="fill:#FFFFFF;" d="M296.603,412.552c0.829,0.058,0.92,1.329,0.053,1.321c-2.665-0.024-4.621,1.683-5.541,4.082
						c-0.33,0.862-1.731,0.312-1.505-0.564C290.4,414.335,293.518,412.336,296.603,412.552z"/>
					<path style="fill:#FFFFFF;" d="M293.912,411.479c0.828,0.058,0.92,1.329,0.053,1.321c-2.665-0.024-4.621,1.683-5.541,4.082
						c-0.33,0.862-1.731,0.312-1.505-0.564C287.708,413.263,290.826,411.264,293.912,411.479z"/>
					<path style="fill:#FFFFFF;" d="M291.221,410.407c0.828,0.058,0.92,1.329,0.053,1.321c-2.665-0.024-4.621,1.683-5.541,4.082
						c-0.33,0.862-1.731,0.312-1.505-0.564C285.017,412.191,288.135,410.191,291.221,410.407z"/>
					<path style="fill:#FFFFFF;" d="M288.53,409.335c0.828,0.058,0.92,1.329,0.053,1.321c-2.665-0.024-4.621,1.683-5.541,4.082
						c-0.33,0.862-1.731,0.312-1.505-0.564C282.326,411.118,285.444,409.119,288.53,409.335z"/>
					<path style="fill:#FFFFFF;" d="M356.875,428.72c-0.181-0.036-0.373-0.078-0.502-0.209c-0.125-0.128-0.164-0.315-0.198-0.491
						c-0.442-2.326-0.884-4.652-1.326-6.978c-0.143-0.753-0.301-1.54-0.785-2.135c-0.524-0.645-1.345-0.961-2.144-1.189
						c-1.73-0.495-3.533-0.711-5.245-1.266c-0.526-0.171-1.022-0.505-1.439-0.909c-0.173-0.113-0.336-0.232-0.488-0.354
						c0.108-0.838,0.231-1.715,0.368-2.589c0,0,0.001,0,0.001,0c0.328,0.027,0.709,0.088,1.153,0.193
						c4.442,1.055,7.217,2.984,12.394,3.087c0.718,0.014,1.486,0.013,2.074,0.283c0.536,0.246,0.819,0.672,1.069,1.08
						c2.31,3.766,3.91,7.746,4.751,11.815c-1.493-0.182-2.134-0.399-3.627-0.581c-0.265-0.032-0.546-0.07-0.733-0.2
						c-0.181-0.126-0.235-0.312-0.281-0.488c-0.605-2.32-1.21-4.639-1.815-6.958c-0.196-0.751-0.414-1.536-1.112-2.122
						c-0.45-0.377-1.356-0.624-2.264-0.807c1.522,3.661,2.604,7.504,3.205,11.423C358.913,429.123,357.894,428.921,356.875,428.72z"
						/>
					<path style="fill:#FFFFFF;" d="M378.988,413.645c0.828,0.058,0.92,1.329,0.053,1.321c-2.665-0.024-4.621,1.683-5.541,4.082
						c-0.33,0.862-1.731,0.312-1.505-0.564C372.784,415.428,375.902,413.429,378.988,413.645z"/>
					<path style="fill:#FFFFFF;" d="M376.296,412.573c0.829,0.058,0.92,1.329,0.053,1.321c-2.665-0.024-4.621,1.683-5.541,4.082
						c-0.33,0.862-1.731,0.312-1.505-0.564C370.093,414.356,373.211,412.357,376.296,412.573z"/>
					<path style="fill:#FFFFFF;" d="M373.605,411.5c0.828,0.058,0.92,1.329,0.053,1.321c-2.665-0.024-4.621,1.683-5.541,4.082
						c-0.33,0.862-1.731,0.312-1.505-0.564C367.401,413.284,370.52,411.285,373.605,411.5z"/>
					<path style="fill:#FFFFFF;" d="M370.914,410.428c0.829,0.058,0.92,1.329,0.053,1.321c-2.665-0.024-4.621,1.683-5.541,4.082
						c-0.33,0.862-1.731,0.312-1.505-0.564C364.71,412.212,367.828,410.212,370.914,410.428z"/>
					<g>
						<path style="fill:#FFFFFF;" d="M199.635,146.843c0,0-11.258,4.023-19.635,27.756l-10.989,23.315
							c0,0,21.903-6.581,28.769,12.286l11.33-31.131c0,0,8.261-18.178,1.046-25.97C202.698,145.045,203.549,144.39,199.635,146.843z
							"/>
					</g>
					<g>
						<g>
							<path style="fill:#F99F84;" d="M286.863,204.723c2.674,6.489-17.302,6.359-20.684,7.984
								c4.566-0.29,21.782-2.694,23.384,1.667c0.697,2.67-14.9,2.671-17.811,3.264c2.729,0.358,13.699,0.023,14.078,3.268
								c-0.266,2.339-10.959,2.008-14.219,2.458c0.773,0.345,10.708,0.619,9.837,2.533c-0.715,1.927-7.616,2.785-11.083,2.956
								c-15.616,0.754-32.879,2.052-30.537-8.431c1.74-7.824,2.916-12.102,22.596-24.206c3.396-2.085,3.326,5.171-2.56,10.76
								C261.465,208.207,286.545,203.947,286.863,204.723z"/>
						</g>
					</g>
					<g>
						<path style="fill:#F99F84;" d="M168.994,213.111c0,0,11.854-9.345,38.332-6.734c29.647,2.923,42.8,5.66,42.8,5.66l8.154,15.89
							c0,0-67.428,9.054-82.248,6.454C161.212,231.782,164.583,216.373,168.994,213.111z"/>
					</g>
				</g>
			</g>
			<g>
				<g>
					<g>
						<path style="fill:#030303;" d="M386.767,444.05l-0.589-0.017c0.005-0.165,0.533-16.734,5.788-37.071
							c4.853-18.782,14.847-44.715,34.894-61.6l0.38,0.451c-19.925,16.782-29.867,42.589-34.7,61.283
							C387.299,427.371,386.772,443.885,386.767,444.05z"/>
					</g>
					<g>
						<path style="fill:#030303;" d="M387.984,428.319l-0.167-0.322c-6.678-12.87-9.226-27.724-7.372-42.955
							c1.733-14.236,7.268-27.642,15.584-37.746c12.562-15.264,29.808-21.077,47.318-15.947c6.879,2.015,10.907,5.702,11.972,10.961
							c2.243,11.082-8.369,28.893-31.543,52.939c-17.221,17.869-35.331,32.693-35.512,32.84L387.984,428.319z M430.947,330.118
							c-12.881,0-25.012,6.067-34.463,17.552c-8.246,10.02-13.734,23.317-15.454,37.443c-1.825,14.986,0.645,29.599,7.143,42.288
							c4.929-4.073,71.665-59.803,66.568-84.974c-1.018-5.027-4.907-8.564-11.56-10.513
							C439.069,330.71,434.971,330.118,430.947,330.118z"/>
					</g>
				</g>
				<g>
					<g>
						<path style="fill:#030303;" d="M406.796,444.655H103.48v0.589h303.295C406.772,445.046,406.779,444.849,406.796,444.655z"/>
					</g>
					<g>
						<g>
							<path style="fill:#030303;" d="M126.839,444.958c-0.005-0.165-0.532-16.679-5.773-36.954
								c-4.832-18.694-14.775-44.502-34.7-61.283l0.38-0.451c20.047,16.885,30.041,42.819,34.894,61.6
								c5.255,20.337,5.784,36.906,5.788,37.071L126.839,444.958z"/>
						</g>
						<g>
							<path style="fill:#030303;" d="M115.301,401.18c-8.303,0-15.056-2.196-20.116-6.55c-8.105-6.976-8.916-17.19-8.923-17.292
								l-0.068-0.962l0.594,0.76c0.074,0.094,7.459,9.464,12.183,8.525c1.501-0.299,2.597-1.661,3.259-4.049
								c0.617-2.228,0.331-3.999-0.848-5.262c-4.108-4.398-17.629-1.689-17.764-1.661l-0.188,0.038l-0.111-0.155
								c-13.241-18.502-6.307-39.067-6.236-39.273l0.026-0.076l0.062-0.052c2.437-2.061,11.499-1.2,11.884-1.162l0.296,0.029
								l-0.032,0.296c-0.008,0.073-0.75,7.277,2.034,9.278c0.981,0.703,2.325,0.671,3.999-0.1c1.892-0.872,2.976-2.058,3.222-3.524
								c0.569-3.398-3.445-7.289-3.485-7.327l-0.454-0.435l0.625-0.071c20.583-2.324,31.997,12.291,32.109,12.439l0.188,0.246
								l-0.256,0.176c-0.1,0.069-9.987,6.974-7.692,15.034c0.377,1.323,0.922,2.028,1.62,2.095
								c2.617,0.243,7.224-7.691,8.777-10.772l0.243-0.482l0.274,0.465c6.559,11.109,8.117,23.406,4.274,33.737
								c-2.898,7.791-8.502,13.59-15.377,15.909l-0.071,0.014C117.961,401.125,116.611,401.18,115.301,401.18z M86.978,378.298
								c0.425,2.711,2.155,10.349,8.598,15.89c5.726,4.925,13.698,7.025,23.69,6.243c6.69-2.27,12.149-7.933,14.979-15.544
								c3.726-10.021,2.281-21.936-3.96-32.769c-1.224,2.351-5.927,10.946-9.113,10.613c-0.964-0.091-1.681-0.939-2.13-2.52
								c-2.194-7.704,6.079-14.311,7.667-15.493c-1.543-1.844-12.344-13.839-30.783-12.04c1.077,1.159,3.736,4.377,3.229,7.408
								c-0.28,1.671-1.477,3.004-3.557,3.962c-1.88,0.866-3.424,0.879-4.589,0.043c-2.75-1.977-2.423-8.075-2.303-9.52
								c-1.569-0.131-8.985-0.647-11.092,1c-0.452,1.389-6.432,20.868,6.074,38.504c1.745-0.337,14.016-2.525,18.125,1.874
								c1.33,1.423,1.661,3.382,0.985,5.822c-0.725,2.62-1.974,4.123-3.711,4.469C94.827,387.091,88.937,380.625,86.978,378.298z"/>
						</g>
					</g>
					<g>
						<g>
							<path style="fill:#030303;" d="M136.753,444.958l-0.589-0.017c0.012-0.396,1.4-39.843,24.432-59.241l0.38,0.451
								C138.146,405.377,136.764,444.564,136.753,444.958z"/>
						</g>
						<g>
							<path style="fill:#030303;" d="M144.107,418.851c-0.959,0-1.956-0.041-2.991-0.123l-0.071-0.014
								c-4.155-1.402-7.542-4.904-9.292-9.609c-2.316-6.227-1.379-13.636,2.572-20.327l0.274-0.465l0.243,0.482
								c1.281,2.539,3.796,6.542,5.146,6.393c0.365-0.035,0.657-0.428,0.869-1.17c1.354-4.754-4.506-8.842-4.565-8.883l-0.256-0.176
								l0.188-0.246c0.069-0.089,6.957-8.9,19.357-7.503l0.625,0.071l-0.454,0.435c-0.024,0.022-2.386,2.316-2.054,4.289
								c0.14,0.838,0.768,1.519,1.864,2.024c0.96,0.442,1.727,0.467,2.279,0.071c1.339-0.964,1.299-4.263,1.17-5.454l-0.036-0.329
								l0.331,0.003c1.294,0.011,12.681,0.143,14.14,1.378l0.138,0.116l-0.041,0.176c-0.027,0.116-2.803,11.771-10.722,22.836
								l-0.111,0.155l-0.188-0.038c-0.081-0.017-8.123-1.628-10.54,0.961c-0.687,0.735-0.844,1.73-0.481,3.042
								c0.465,1.679,1.25,2.683,2.333,2.983c2.548,0.709,6.027-2.561,6.061-2.595l0.521-0.496l-0.024,0.719
								c-0.006,0.169-0.18,4.184-3.791,7.412C153.716,417.55,149.521,418.851,144.107,418.851z M141.199,418.144
								c6.693,0.52,11.743-0.693,15.011-3.614c2.531-2.262,3.284-4.976,3.505-6.256c-1.162,0.953-3.813,2.84-6.036,2.223
								c-1.297-0.359-2.22-1.501-2.744-3.393c-0.417-1.505-0.209-2.717,0.618-3.602c2.451-2.625,9.609-1.415,10.9-1.173
								c7.207-10.137,10.071-20.712,10.468-22.275c-1.409-0.747-8.494-1.088-13.295-1.141c0.075,1.087,0.175,4.505-1.441,5.666
								c-0.735,0.53-1.7,0.526-2.869-0.014c-1.285-0.592-2.025-1.421-2.199-2.464c-0.29-1.73,1.08-3.544,1.806-4.365
								c-10.592-0.923-16.881,5.753-18.037,7.101c1.188,0.89,5.85,4.732,4.537,9.342c-0.284,0.999-0.748,1.536-1.379,1.596
								c-1.897,0.198-4.609-4.592-5.479-6.235c-3.633,6.414-4.459,13.441-2.259,19.359
								C133.988,413.424,137.228,416.792,141.199,418.144z"/>
						</g>
					</g>
				</g>
			</g>
		</g>
		<g>
			<g>
				
					<ellipse transform="matrix(0.7071 -0.7071 0.7071 0.7071 48.2254 327.362)" style="fill:#FFFFFF;stroke:#7898CE;stroke-width:2.1258;stroke-miterlimit:10;" cx="419.274" cy="105.468" rx="39.754" ry="39.754"/>
				<g>
					<g>
						<polygon style="fill:#7898CE;" points="393.798,190.312 419.805,170.37 419.805,145.222 418.742,145.222 418.742,169.846 
							393.15,189.468 						"/>
					</g>
					<path style="fill:#7898CE;" d="M390.969,189.89c0,1.383,1.121,2.505,2.505,2.505c1.383,0,2.505-1.121,2.505-2.505
						s-1.121-2.505-2.505-2.505C392.091,187.386,390.969,188.507,390.969,189.89z"/>
				</g>
				<g>
					<g>
						<path style="fill:#D59A7F;" d="M392.378,110.317c-2.874-15.915,7.074-31.033,22.218-33.768
							c15.003-2.709,29.471,7.754,32.535,23.422c-0.283,3.113-1.837,7.216-8.009,7.551c-5.441,0.296-14.614,9.742-11.322,19.115
							c1.652,4.702-2.348,7.123-6.675,7.95C407.439,135.037,395.005,124.866,392.378,110.317z"/>
						<g>
							<g>
								<path style="fill:#0177CC;" d="M418.689,89.666c1.037,2.737,4.097,4.114,6.833,3.077c2.737-1.037,4.114-4.097,3.077-6.833
									c-1.037-2.736-4.097-4.114-6.833-3.077C419.029,83.87,417.652,86.93,418.689,89.666z"/>
							</g>
							<g>
								<path style="fill:#036CB0;" d="M421.766,82.833c-2.737,1.037-4.114,4.097-3.077,6.833c1.037,2.737,4.097,4.114,6.833,3.077"
									/>
							</g>
						</g>
						<g>
							<g>
								<path style="fill:#8CCD47;" d="M403.31,95.48c1.037,2.737,4.096,4.114,6.833,3.077c2.737-1.037,4.114-4.097,3.077-6.833
									c-1.037-2.737-4.096-4.114-6.833-3.077C403.65,89.684,402.272,92.743,403.31,95.48z"/>
							</g>
							<g>
								<path style="fill:#85BE3B;" d="M406.386,88.647c-2.736,1.037-4.114,4.096-3.077,6.833c1.037,2.737,4.096,4.114,6.833,3.077"
									/>
							</g>
						</g>
						<g>
							<g>
								<path style="fill:#FD4F78;" d="M398.351,110.89c1.037,2.737,4.096,4.114,6.833,3.077c2.737-1.037,4.115-4.097,3.077-6.833
									c-1.037-2.737-4.097-4.114-6.833-3.077C398.691,105.094,397.313,108.153,398.351,110.89z"/>
							</g>
							<g>
								<path style="fill:#FD4879;" d="M401.427,104.057c-2.736,1.037-4.114,4.096-3.077,6.833c1.037,2.737,4.096,4.114,6.833,3.077
									"/>
							</g>
						</g>
						<g>
							<g>
								<path style="fill:#FDE919;" d="M407.714,122.905c1.037,2.737,4.097,4.114,6.833,3.077c2.737-1.037,4.114-4.097,3.077-6.833
									c-1.037-2.737-4.096-4.114-6.833-3.077C408.055,117.11,406.677,120.169,407.714,122.905z"/>
							</g>
							<g>
								<path style="fill:#FBDE1D;" d="M410.791,116.072c-2.737,1.037-4.114,4.096-3.077,6.833c1.037,2.737,4.097,4.114,6.833,3.077
									"/>
							</g>
						</g>
					</g>
					<path style="fill:#C58E76;" d="M431.921,96.937c0.812,2.143,3.208,3.222,5.351,2.41c2.143-0.812,3.222-3.208,2.41-5.351
						c-0.812-2.143-3.208-3.222-5.351-2.41C432.188,92.398,431.109,94.794,431.921,96.937z"/>
				</g>
			</g>
			<g>
				<circle style="fill:#7898CE;" cx="187.088" cy="178.972" r="2.505"/>
				<g>
					<polygon style="fill:#7898CE;" points="99.978,254.524 99.175,253.828 164.488,178.44 187.088,178.44 187.088,179.503 
						164.974,179.503 					"/>
				</g>
			</g>
			<g>
				
					<ellipse transform="matrix(0.7071 -0.7071 0.7071 0.7071 -177.1676 130.1068)" style="fill:#FFFFFF;stroke:#7898CE;stroke-width:2.1258;stroke-miterlimit:10;" cx="68.469" cy="278.914" rx="39.754" ry="39.754"/>
				<g>
					<path style="fill:#EDEBEB;" d="M66.512,265.677c0,0-0.383-2.518-2.135-3.175l-16.458-3.522
						c-1.051-0.225-2.042,0.576-2.042,1.651v18.766l14.121,0.292L66.512,265.677z"/>
					<path style="fill:#E2DADA;" d="M66.457,265.677c0,0,0.383-2.518,2.135-3.175l16.458-3.522c1.051-0.225,2.042,0.576,2.042,1.651
						v18.766l-14.121,0.292L66.457,265.677z"/>
					<polygon style="fill:#05B6BE;" points="63.638,264.858 44.107,260.913 44.107,294.301 63.638,298.246 					"/>
					<polygon style="fill:#05B6BE;" points="69.495,264.858 89.026,260.913 89.026,294.301 69.495,298.246 					"/>
					<polygon style="fill:#FFFFFF;" points="86.284,276.186 86.284,266.153 72.236,268.991 72.236,279.023 					"/>
					<g>
						<path style="fill:#00616D;" d="M69.524,264.858h-5.886c-0.195-0.195,0,33.388,0,33.388h5.886V264.858z"/>
					</g>
				</g>
			</g>
			<g>
				
					<ellipse transform="matrix(0.9732 -0.2298 0.2298 0.9732 -17.5515 21.5326)" style="fill:#FFFFFF;stroke:#7898CE;stroke-width:2.1258;stroke-miterlimit:10;" cx="83.691" cy="86.137" rx="39.754" ry="39.754"/>
				<g>
					<path style="fill:#7898CE;" d="M209.594,97.034c0,1.383-1.121,2.505-2.505,2.505s-2.505-1.121-2.505-2.505
						s1.121-2.505,2.505-2.505S209.594,95.651,209.594,97.034z"/>
					<g>
						<polygon style="fill:#7898CE;" points="207.089,97.566 182.583,97.566 168.794,86.669 123.445,86.669 123.445,85.606 
							169.164,85.606 182.953,96.503 207.089,96.503 						"/>
					</g>
				</g>
				<g>
					<g>
						<path style="fill-rule:evenodd;clip-rule:evenodd;fill:#A07366;" d="M65.503,72.029c-1.447,2.2-2.61,5.175-3.168,8.158
							c-0.549,2.977-0.509,5.958-0.154,8.242c0.34,2.281,0.975,3.852,1.761,5.718c0.792,1.875,1.744,4.039,2.132,5.581
							c2.177,8.666,11.02,12.093,19.169,10.899c2.587-0.379,5.319-1.338,7.344-2.26c2.016-0.916,3.325-1.795,4.109-2.298
							c0.204-0.128,0.366-0.24,0.497-0.398c0.184-0.061,0.346-0.173,0.547-0.325c0.746-0.557,2.021-1.466,3.597-3.036
							c1.567-1.564,3.435-3.79,4.693-6.071c3.995-7.213,3.894-16.69-3.442-21.786c-1.307-0.907-3.006-2.553-4.482-3.955
							c-1.461-1.399-2.708-2.546-4.723-3.668c-2.021-1.131-4.789-2.225-7.777-2.752c-2.98-0.534-6.174-0.494-8.751,0.092
							C72.329,65.174,68.035,68.146,65.503,72.029L65.503,72.029z"/>
					</g>
					<g>
						<path style="fill-rule:evenodd;clip-rule:evenodd;fill:#ECD0C6;" d="M88.934,109.766c1.326-0.412,2.59-0.914,3.653-1.397
							c0.548-0.247,1.042-0.495,1.494-0.728l0.045-0.031l0.009-0.006l0.06-0.028l0.009-0.006l0.042-0.016l0.054-0.037l0,0
							l0.051-0.022l0.009-0.006l0.045-0.031l0.024-0.004l0.036-0.025l0,0l0.051-0.022l0.045-0.031l0.009-0.006l0.051-0.022
							l0.096-0.053l0.054-0.037l0,0l0.051-0.022l0.018-0.012l0.027-0.019l0.036-0.025l0.009-0.006l0.051-0.022l0.009-0.006
							l0.036-0.025l0.051-0.022l0.045-0.031l0,0l0.045-0.031l0.018-0.012l0.024-0.003l0.036-0.025l0.009-0.006l0.045-0.031
							l0.009-0.006l0.042-0.016l0.036-0.025l0.036-0.025l0.009-0.006l0.036-0.025l0.024-0.004l0.027-0.019l0.027-0.019l0.009-0.006
							l0.045-0.031l0,0l0.036-0.025l0.024-0.004l0.018-0.012l0.036-0.025l0.009-0.006l0.036-0.025l0.009-0.006l0.027-0.019
							l0.018-0.013l0.018-0.012l0.042-0.016l0,0l0.036-0.025l0.009-0.006l0.027-0.019l0.027-0.019l0.009-0.006l0.036-0.025l0,0
							l0.042-0.016l0.018-0.012l0.018-0.012l0.027-0.019l0.009-0.006l0.036-0.025l0,0l0.027-0.019l0.018-0.012l0.018-0.012
							l0.027-0.019l0,0l0.036-0.025l0.009-0.006l0.033-0.01l0.018-0.012l0.009-0.006l0.027-0.019l0,0l0.036-0.025l0.009-0.006
							l0.018-0.013l0.027-0.019l0,0l0.036-0.025l0,0l0.027-0.019l0.009-0.006l0.018-0.012l0.027-0.019l0,0l0.033-0.01l0.009-0.006
							l0.018-0.012l0.018-0.012l0.009-0.006l0.027-0.019c0.204-0.128,0.366-0.24,0.497-0.398c0.184-0.061,0.346-0.173,0.547-0.325
							l0.018-0.012l0.018-0.012l0.009-0.006l0.027-0.019l0,0l0.021-0.028l0.009-0.006l0.027-0.019l0.009-0.006l0.018-0.012
							l0.027-0.019l0,0l0.027-0.019l0.009-0.006l0.018-0.012l0.027-0.019l0.009-0.006l0.027-0.019l0,0l0.036-0.025l0.009-0.006
							l0.018-0.012l0.021-0.028l0.009-0.006l0.027-0.019l0.009-0.006l0.027-0.019l0.018-0.012l0.009-0.006l0.036-0.025l0,0
							l0.036-0.025l0.009-0.006l0.027-0.019l0.018-0.013l0.009-0.006l0.03-0.034l0,0l0.036-0.025l0.018-0.012l0.018-0.012
							l0.027-0.019l0.009-0.006l0.036-0.025l0.009-0.006l0.021-0.028l0.018-0.012l0.027-0.019l0.027-0.019l0.009-0.006l0.036-0.025
							l0.009-0.006l0.027-0.019l0.027-0.019l0.012-0.021l0.036-0.025l0,0l0.036-0.025l0.018-0.012l0.027-0.019l0.027-0.019
							l0.003-0.015l0.045-0.031l0,0l0.036-0.025l0.045-0.031l0.03-0.034l0.009-0.006l0.036-0.025l0.018-0.012l0.027-0.019
							l0.021-0.028l0.018-0.012l0.045-0.031l0,0l0.045-0.031l0.039-0.04l0.027-0.019l0.018-0.012l0.039-0.04l0,0l0.045-0.031
							l0.018-0.012l0.027-0.019l0.03-0.034l0.009-0.006l0.045-0.031l0.093-0.078l0.039-0.04l0,0l0.054-0.037l0.039-0.04l0,0
							l0.036-0.025l0.012-0.021l0.045-0.031l0.009-0.006l0.039-0.04l0,0l0.045-0.031l0.039-0.04l0.009-0.006l0.048-0.047
							l0.009-0.006l0.036-0.025c0.377-0.341,0.783-0.715,1.216-1.148c0.827-0.825,1.733-1.825,2.594-2.927
							c0.105-1.445,0.103-2.987-0.058-4.221c-0.273-2.221-1.059-3.435-3.114-4.21c-2.039-0.772-5.346-1.106-7.933-1.939
							c-2.581-0.824-4.456-2.148-5.8-3.935c-1.34-1.802-2.151-4.05-3.077-6.312c-0.929-2.246-1.983-4.5-2.924-5.859
							c-0.941-1.359-1.775-1.834-3.066-2.006c-4.091-0.524-5.547,0.297-6.536,4.524c-0.294,1.269-0.143,2.217,0.798,3.576
							c0.941,1.359,2.679,3.139,4.454,4.8c1.782,1.67,3.609,3.214,4.824,5.103c1.199,1.886,1.779,4.108,1.641,6.814
							c-0.132,2.714-0.984,5.927-0.988,8.114c0.011,2.189,0.869,3.353,2.844,4.397C86.102,108.81,87.545,109.356,88.934,109.766
							L88.934,109.766z"/>
					</g>
					<g>
						<path style="fill-rule:evenodd;clip-rule:evenodd;fill:#32272B;" d="M85.979,95.859c-0.667,0.595-0.788,0.958-0.788,1.305
							c0,0.346,0.121,0.675,0.937,0.776c0.831,0.104,2.344-0.038,3.371-0.189c1.024-0.136,1.55-0.3,1.836-0.445
							c0.063-0.044,0.108-0.075,0.153-0.106c0.045-0.031,0.099-0.069,0.153-0.106c0.245-0.223,0.584-0.657,1.072-1.568
							c0.503-0.908,1.169-2.274,1.364-3.088c0.192-0.799-0.073-1.028-0.397-1.15c-0.324-0.122-0.716-0.13-1.498,0.278
							C90.842,92.266,87.163,94.8,85.979,95.859L85.979,95.859z"/>
					</g>
					<g>
						<path style="fill:#32272B;" d="M91.151,97.099L91.151,97.099l-0.006-0.009l0,0l0,0l0,0l0,0l0,0l0.003-0.015l0,0l0,0l0,0l0,0
							l0,0l0,0l0,0l-0.006-0.009l0,0l0,0l0.009-0.006l0,0l0,0l0,0l0,0l-0.006-0.009l0,0l0,0l0,0l0.009-0.006l0,0l0,0l0,0
							l-0.006-0.009l0,0l0,0l0,0l0.009-0.006l0,0l0,0l0,0l0,0l0,0L91.15,97.02l0,0l0.009-0.006l0,0l0,0l0,0l0,0l0,0l0,0l0,0
							l0.009-0.006l0,0l-0.006-0.009l0,0l0,0l0,0l0.009-0.006l0,0l0,0l0,0l0,0l0,0l0,0l0.009-0.006l0,0l0,0l0,0l0,0l-0.006-0.009
							l0.009-0.006l0,0l0,0l0,0l0,0l0,0l0,0l0.009-0.006l0,0l0,0l0,0l0,0l0,0l0,0l0.009-0.006l0,0l0,0l0,0l0,0l0,0l0.009-0.006l0,0
							l0,0l0,0l0,0l0,0l0.009-0.006l0,0l0,0l0,0l0,0l0,0l0.009-0.006l0,0l0,0l0,0l0,0l0,0l0.009-0.006l0,0l0,0l0,0l0,0l0,0l0,0
							l0.015,0.003l0,0l0,0l0,0l0,0l0,0l0.009-0.006l0,0l0,0l0,0l0,0l0,0l0,0l0.009-0.006l0,0l0,0l0.006,0.009l0,0l0,0l0,0
							l0.009-0.006l0,0l0,0l0,0l0,0l0,0l0,0l0,0l0.015,0.003l0,0l0,0l0,0l0,0l0,0l0,0l0.009-0.006l0,0l0,0l0.006,0.009l0,0l0,0l0,0
							l0,0l0,0l0.009-0.006l0,0l0.006,0.009l0,0l0,0l0,0l0,0l0,0l0,0l0,0l0.015,0.003l0,0l0,0l0,0l0,0l0,0l0,0l0,0l0.006,0.009l0,0
							l0,0l0.009-0.006l0,0l0,0l0.006,0.009l0,0l0,0c0.249,0.147,0.512,0.298,0.776,0.409c0.263,0.111,0.532,0.191,0.823,0.189
							c0.289,0.013,0.6-0.056,0.92-0.171c0.32-0.115,0.645-0.3,0.938-0.53c0.273-0.202,0.523-0.456,0.753-0.721
							c0.244-0.302,0.457-0.609,0.601-0.882c0.267-0.518,0.339-0.914,0.396-1.313c0.023-0.082,0.095-0.132,0.171-0.118
							c0.076,0.014,0.135,0.08,0.121,0.156c-0.071,0.436-0.14,0.856-0.437,1.408c-0.156,0.294-0.372,0.617-0.643,0.938
							c-0.223,0.274-0.492,0.54-0.785,0.77c-0.327,0.24-0.67,0.437-1.023,0.561c-0.347,0.134-0.698,0.203-1.02,0.2
							c-0.328-0.013-0.636-0.092-0.927-0.224c-0.184-0.073-0.37-0.17-0.548-0.273c0.034,0.203,0.059,0.412,0.062,0.609
							c0.021,0.319-0.013,0.635-0.117,0.947c-0.119,0.309-0.299,0.607-0.546,0.884c-0.241,0.287-0.555,0.544-0.886,0.76
							c-0.319,0.194-0.662,0.352-1.006,0.47c-0.386,0.134-0.764,0.223-1.095,0.265c-0.621,0.084-1.048,0.006-1.471-0.087
							c-0.076-0.014-0.126-0.086-0.103-0.168c0.014-0.076,0.086-0.126,0.162-0.112c0.402,0.081,0.805,0.162,1.377,0.085
							c0.306-0.039,0.669-0.13,1.037-0.252c0.32-0.115,0.654-0.267,0.94-0.451c0.319-0.194,0.606-0.433,0.826-0.692
							c0.22-0.259,0.395-0.526,0.484-0.801c0.096-0.266,0.124-0.552,0.113-0.837C91.25,97.683,91.193,97.39,91.151,97.099
							L91.151,97.099z"/>
					</g>
					<g>
						<path style="fill-rule:evenodd;clip-rule:evenodd;fill:#32272B;" d="M76.896,93.837c1.053-0.729,1.316-2.176,0.587-3.23
							c-0.729-1.053-2.176-1.317-3.229-0.587c-1.053,0.729-1.317,2.176-0.588,3.23C74.396,94.303,75.843,94.566,76.896,93.837
							L76.896,93.837z"/>
					</g>
					<g>
						<path style="fill-rule:evenodd;clip-rule:evenodd;fill:#32272B;" d="M92.502,82.968c1.053-0.729,1.316-2.176,0.587-3.229
							c-0.729-1.053-2.176-1.317-3.23-0.588c-1.053,0.729-1.317,2.176-0.587,3.23C90.002,83.434,91.449,83.697,92.502,82.968
							L92.502,82.968z"/>
					</g>
					<g>
						<path style="fill-rule:evenodd;clip-rule:evenodd;fill:#604D47;" d="M77.174,63.844c0.263-0.755,1.096-1.611,2.425-2.344
							c1.323-0.743,3.147-1.379,4.957-1.86c1.808-0.466,3.604-0.777,4.88-0.741c1.282,0.044,2.045,0.435,3.504,2.062
							c1.456,1.642,3.608,4.52,4.826,6.779c1.212,2.251,1.498,3.876,1.26,4.84c-0.238,0.964-1.008,1.257-3.081,0.974
							c-2.088-0.286-5.481-1.146-8.763-2.523c-3.283-1.376-6.45-3.258-8.203-4.522C77.235,65.24,76.914,64.584,77.174,63.844
							L77.174,63.844z"/>
					</g>
					<g>
						<path style="fill-rule:evenodd;clip-rule:evenodd;fill:#604D47;" d="M64.769,72.431c-0.799-0.019-1.893,0.458-3.048,1.444
							c-1.161,0.977-2.399,2.459-3.487,3.985c-1.073,1.528-1.996,3.099-2.412,4.306c-0.41,1.216-0.313,2.068,0.705,4
							c1.015,1.947,2.96,4.969,4.637,6.91c1.68,1.927,3.101,2.767,4.087,2.884c0.986,0.116,1.531-0.5,1.997-2.54
							c0.468-2.055,0.857-5.533,0.725-9.09c-0.132-3.557-0.769-7.19-1.343-9.27C66.054,72.979,65.553,72.448,64.769,72.431
							L64.769,72.431z"/>
					</g>
					<g>
						<path style="fill:#221F20;" d="M85.572,94.636c-0.035,0.064-0.126,0.087-0.197,0.043c-0.071-0.044-0.087-0.126-0.052-0.19
							l0.009-0.006c0.341-0.622,0.683-1.245,1.24-1.844c0.274-0.296,0.609-0.582,0.972-0.846c0.354-0.258,0.717-0.483,1.079-0.654
							c0.359-0.155,0.703-0.274,1.039-0.346c0.336-0.073,0.66-0.124,0.99-0.166c0.073-0.01,0.15,0.043,0.151,0.122
							c0.017,0.082-0.043,0.15-0.116,0.16c-0.315,0.045-0.63,0.09-0.96,0.172c-0.312,0.069-0.644,0.166-0.987,0.324
							c-0.344,0.158-0.698,0.377-1.034,0.622c-0.336,0.246-0.662,0.525-0.927,0.815c-0.537,0.571-0.875,1.179-1.205,1.779
							l0.006,0.009L85.572,94.636z"/>
					</g>
				</g>
			</g>
		</g>
		<g>
			<g>
				
					<rect x="194.813" y="52.432" transform="matrix(0.9316 -0.3635 0.3635 0.9316 -8.479 82.3573)" style="fill:#AFBFE0;" width="39.482" height="22.545"/>
				<polygon style="fill:#E7EDF7;" points="228.621,46.115 228.036,46.343 221.677,60.841 221.498,61.248 217.316,70.783 
					207.781,66.601 207.375,66.422 192.877,60.063 192.292,60.291 207.196,66.829 200.927,81.123 201.512,80.894 207.603,67.007 
					217.544,71.367 221.905,61.426 235.792,67.517 236.378,67.289 222.083,61.019 				"/>
			</g>
			<g>
				<path style="fill:#AFBFE0;" d="M81.021,178.71v-4.402c0-5.532-4.485-10.017-10.017-10.017H38.213
					c-5.532,0-10.017,4.485-10.017,10.017v4.402c0,5.532,4.485,10.017,10.017,10.017H61.79l16.514,4.925l-2.708-6.038
					C78.818,185.95,81.021,182.587,81.021,178.71z"/>
				<path style="fill:#E7EDF7;" d="M72.918,171.955h-36.95c-0.732,0-1.326-0.593-1.326-1.326l0,0c0-0.732,0.593-1.326,1.326-1.326
					h36.95c0.732,0,1.326,0.593,1.326,1.326l0,0C74.244,171.362,73.651,171.955,72.918,171.955z"/>
				<path style="fill:#E7EDF7;" d="M72.918,177.589h-36.95c-0.732,0-1.326-0.593-1.326-1.326l0,0c0-0.732,0.593-1.326,1.326-1.326
					h36.95c0.732,0,1.326,0.593,1.326,1.326l0,0C74.244,176.995,73.651,177.589,72.918,177.589z"/>
				<path style="fill:#E7EDF7;" d="M58.934,183.222h-23.23c-0.586,0-1.061-0.475-1.061-1.061v-0.53c0-0.586,0.475-1.061,1.061-1.061
					h23.23c0.586,0,1.061,0.475,1.061,1.061v0.53C59.994,182.748,59.519,183.222,58.934,183.222z"/>
			</g>
			<g>
				<g style="opacity:0.5;">
					<path style="fill:#FFFFFF;" d="M123.371,250.617c0,1.685-1.866,3.05-4.168,3.05c-2.302,0-4.168-1.366-4.168-3.05
						c0-1.685,1.866-3.05,4.168-3.05C121.505,247.567,123.371,248.933,123.371,250.617z"/>
					<path style="fill:#FFFFFF;" d="M101.442,259.312c0,1.685-1.866,3.05-4.168,3.05c-2.302,0-4.168-1.366-4.168-3.05
						c0-1.685,1.866-3.05,4.168-3.05C99.576,256.261,101.442,257.627,101.442,259.312z"/>
					<path style="fill:#FFFFFF;" d="M215.498,251.419c0,1.685-1.866,3.05-4.168,3.05c-2.302,0-4.168-1.366-4.168-3.05
						c0-1.685,1.866-3.05,4.168-3.05C213.632,248.369,215.498,249.735,215.498,251.419z"/>
					<path style="fill:#FFFFFF;" d="M289.864,143.396c0,1.097-1.216,1.987-2.716,1.987s-2.716-0.89-2.716-1.987
						c0-1.097,1.216-1.987,2.716-1.987S289.864,142.299,289.864,143.396z"/>
					<path style="fill:#FFFFFF;" d="M453.94,271.237c0,1.685-1.866,3.05-4.168,3.05c-2.302,0-4.168-1.366-4.168-3.05
						c0-1.685,1.866-3.05,4.168-3.05C452.074,268.187,453.94,269.552,453.94,271.237z"/>
					<ellipse style="fill:#FFFFFF;" cx="362.065" cy="225.422" rx="2.217" ry="1.622"/>
					<ellipse style="fill:#FFFFFF;" cx="485.336" cy="361.365" rx="4.168" ry="3.05"/>
					<path style="fill:#FFFFFF;" d="M121.779,318.13c0,1.685-1.866,3.05-4.168,3.05c-2.302,0-4.168-1.366-4.168-3.05
						c0-1.685,1.866-3.05,4.168-3.05C119.912,315.08,121.779,316.445,121.779,318.13z"/>
					<circle style="fill:#FFFFFF;" cx="186.102" cy="262.362" r="3.844"/>
					<path style="fill:#FFFFFF;" d="M135.784,284.542c0,2.123-1.721,3.844-3.844,3.844c-2.123,0-3.844-1.721-3.844-3.844
						c0-2.123,1.721-3.844,3.844-3.844C134.063,280.698,135.784,282.419,135.784,284.542z"/>
					<path style="fill:#FFFFFF;" d="M127.215,200.13c0,2.123-1.721,3.844-3.844,3.844c-2.123,0-3.844-1.721-3.844-3.844
						s1.721-3.844,3.844-3.844C125.494,196.286,127.215,198.007,127.215,200.13z"/>
					<circle style="fill:#FFFFFF;" cx="106.781" cy="350.88" r="3.844"/>
					<path style="fill:#FFFFFF;" d="M257.268,161.707c0,2.123-1.721,3.844-3.844,3.844c-2.123,0-3.844-1.721-3.844-3.844
						s1.721-3.844,3.844-3.844C255.547,157.863,257.268,159.584,257.268,161.707z"/>
					<circle style="fill:#FFFFFF;" cx="253.836" cy="214.236" r="3.844"/>
					<circle style="fill:#FFFFFF;" cx="333.069" cy="165.006" r="3.844"/>
					<circle style="fill:#FFFFFF;" cx="390.19" cy="240.922" r="3.844"/>
					<path style="fill:#FFFFFF;" d="M461.852,248.01c0,2.123-1.721,3.844-3.844,3.844c-2.123,0-3.844-1.721-3.844-3.844
						c0-2.123,1.721-3.844,3.844-3.844C460.131,244.166,461.852,245.887,461.852,248.01z"/>
					<path style="fill:#FFFFFF;" d="M394.34,256.862c0,1.501-1.217,2.718-2.718,2.718c-1.501,0-2.718-1.217-2.718-2.718
						c0-1.501,1.217-2.718,2.718-2.718C393.123,254.144,394.34,255.361,394.34,256.862z"/>
					<circle style="fill:#FFFFFF;" cx="348.982" cy="239.788" r="3.844"/>
					<path style="fill:#FFFFFF;" d="M480.067,201.862c0,2.123-1.721,3.844-3.844,3.844c-2.123,0-3.844-1.721-3.844-3.844
						s1.721-3.844,3.844-3.844C478.346,198.018,480.067,199.739,480.067,201.862z"/>
					<path style="fill:#FFFFFF;" d="M468.479,297.343c0,1.089-0.883,1.971-1.971,1.971c-1.089,0-1.971-0.883-1.971-1.971
						s0.883-1.971,1.971-1.971C467.597,295.372,468.479,296.255,468.479,297.343z"/>
				</g>
				<g>
					<g>
						<g>
							<path style="fill:#BFE2F6;" d="M440.542,117.224c-1.809,0-3.28-1.472-3.28-3.28c0-1.809,1.472-3.28,3.28-3.28
								c1.809,0,3.28,1.472,3.28,3.28C443.822,115.753,442.351,117.224,440.542,117.224z M440.542,111.243
								c-1.489,0-2.701,1.212-2.701,2.701c0,1.489,1.212,2.701,2.701,2.701c1.489,0,2.701-1.212,2.701-2.701
								C443.243,112.455,442.031,111.243,440.542,111.243z"/>
						</g>
						<g>
							<path style="fill:#BFE2F6;" d="M300.082,70.253c-6.756,0-12.252-5.496-12.252-12.252s5.496-12.252,12.252-12.252
								s12.252,5.496,12.252,12.252S306.837,70.253,300.082,70.253z M300.082,46.328c-6.436,0-11.673,5.236-11.673,11.673
								c0,6.436,5.236,11.673,11.673,11.673c6.436,0,11.673-5.236,11.673-11.673C311.754,51.565,306.518,46.328,300.082,46.328z"/>
						</g>
						<g>
							<path style="fill:#BFE2F6;" d="M80.464,429.765c-4.612,0-8.364-3.752-8.364-8.363s3.752-8.363,8.364-8.363
								s8.364,3.752,8.364,8.363S85.075,429.765,80.464,429.765z M80.464,413.433c-4.394,0-7.968,3.574-7.968,7.968
								s3.574,7.968,7.968,7.968s7.968-3.574,7.968-7.968S84.857,413.433,80.464,413.433z"/>
						</g>
						<g>
							<path style="fill:#BFE2F6;" d="M54.608,409.139c-2.36,0-4.281-1.92-4.281-4.281s1.92-4.281,4.281-4.281
								c2.36,0,4.281,1.92,4.281,4.281S56.969,409.139,54.608,409.139z M54.608,400.974c-2.142,0-3.885,1.743-3.885,3.885
								s1.743,3.885,3.885,3.885c2.142,0,3.885-1.743,3.885-3.885S56.751,400.974,54.608,400.974z"/>
						</g>
						<g>
							<path style="fill:#BFE2F6;" d="M454.164,244.558c-6.756,0-12.252-5.496-12.252-12.252s5.496-12.252,12.252-12.252
								s12.252,5.496,12.252,12.252S460.919,244.558,454.164,244.558z M454.164,220.633c-6.436,0-11.673,5.236-11.673,11.673
								c0,6.436,5.236,11.673,11.673,11.673c6.436,0,11.673-5.236,11.673-11.673C465.836,225.869,460.6,220.633,454.164,220.633z"/>
						</g>
						<g>
							<path style="fill:#BFE2F6;" d="M450.278,224.914c-2.36,0-4.281-1.92-4.281-4.281s1.92-4.281,4.281-4.281
								c2.36,0,4.281,1.92,4.281,4.281S452.639,224.914,450.278,224.914z M450.278,216.748c-2.142,0-3.885,1.743-3.885,3.885
								c0,2.142,1.743,3.885,3.885,3.885c2.142,0,3.885-1.743,3.885-3.885C454.164,218.491,452.421,216.748,450.278,216.748z"/>
						</g>
						<g>
							<path style="fill:#BFE2F6;" d="M291.524,43.584c-2.36,0-4.281-1.92-4.281-4.281c0-2.36,1.92-4.281,4.281-4.281
								c2.36,0,4.281,1.92,4.281,4.281C295.805,41.664,293.885,43.584,291.524,43.584z M291.524,35.418
								c-2.142,0-3.885,1.743-3.885,3.885c0,2.142,1.743,3.885,3.885,3.885c2.142,0,3.885-1.743,3.885-3.885
								C295.41,37.161,293.667,35.418,291.524,35.418z"/>
						</g>
					</g>
				</g>
				<g>
					<g>
						<g>
							<g>
								<path style="fill:#BFE2F6;" d="M61.359,211.51l0.971,4.359c0.135,0.604,0.606,1.076,1.21,1.21l4.359,0.971
									c1.026,0.229,1.026,1.691,0,1.92l-4.359,0.971c-0.604,0.135-1.076,0.606-1.21,1.21l-0.971,4.359
									c-0.229,1.026-1.691,1.026-1.92,0l-0.971-4.359c-0.135-0.604-0.606-1.076-1.21-1.21l-4.359-0.971
									c-1.026-0.229-1.026-1.691,0-1.92l4.359-0.971c0.604-0.135,1.076-0.606,1.21-1.21l0.971-4.359
									C59.668,210.485,61.131,210.485,61.359,211.51z"/>
							</g>
						</g>
						<g>
							<g>
								<path style="fill:#FFFFFF;" d="M436.697,291.641l0.906,4.065c0.126,0.563,0.565,1.003,1.129,1.129l4.065,0.906
									c0.957,0.213,0.957,1.577,0,1.79l-4.065,0.906c-0.563,0.126-1.003,0.565-1.129,1.129l-0.906,4.065
									c-0.213,0.957-1.577,0.957-1.79,0l-0.906-4.065c-0.126-0.563-0.565-1.003-1.129-1.129l-4.065-0.906
									c-0.957-0.213-0.957-1.577,0-1.79l4.065-0.906c0.563-0.126,1.003-0.565,1.129-1.129l0.906-4.065
									C435.12,290.685,436.484,290.685,436.697,291.641z"/>
							</g>
						</g>
						<g>
							<g>
								<path style="fill:#BFE2F6;" d="M61.295,339.939l0.906,4.065c0.126,0.563,0.565,1.003,1.129,1.129l4.065,0.906
									c0.957,0.213,0.957,1.577,0,1.79l-4.065,0.906c-0.563,0.126-1.003,0.565-1.129,1.129l-0.906,4.065
									c-0.213,0.957-1.577,0.957-1.79,0l-0.906-4.065c-0.126-0.563-0.565-1.003-1.129-1.129l-4.065-0.906
									c-0.957-0.213-0.957-1.577,0-1.79l4.065-0.906c0.563-0.126,1.003-0.565,1.129-1.129l0.906-4.065
									C59.718,338.982,61.081,338.982,61.295,339.939z"/>
							</g>
						</g>
						<g>
							<g>
								<path style="fill:#BFE2F6;" d="M340.495,87.495l3.736,3.667c0.518,0.508,1.283,0.671,1.963,0.418l4.907-1.826
									c1.155-0.43,2.088,1.009,1.225,1.888l-3.667,3.736c-0.508,0.518-0.671,1.283-0.418,1.963l1.826,4.907
									c0.43,1.155-1.009,2.088-1.888,1.225l-3.736-3.667c-0.518-0.508-1.283-0.671-1.963-0.418l-4.907,1.826
									c-1.155,0.43-2.088-1.009-1.225-1.888l3.667-3.736c0.508-0.518,0.671-1.283,0.418-1.963l-1.826-4.907
									C338.178,87.565,339.616,86.632,340.495,87.495z"/>
							</g>
						</g>
						<g>
							<g>
								<path style="fill:#BFE2F6;" d="M156.024,121.197l-1.507,4.021c-0.209,0.557-0.077,1.185,0.339,1.61l3,3.072
									c0.706,0.723-0.062,1.901-1.008,1.546l-4.021-1.507c-0.557-0.209-1.185-0.077-1.61,0.339l-3.072,3
									c-0.723,0.706-1.901-0.062-1.546-1.008l1.507-4.021c0.209-0.557,0.077-1.185-0.339-1.61l-3-3.072
									c-0.706-0.723,0.062-1.901,1.008-1.546l4.021,1.507c0.557,0.209,1.185,0.077,1.61-0.339l3.072-3
									C155.201,119.483,156.379,120.251,156.024,121.197z"/>
							</g>
						</g>
						<g>
							<g>
								<path style="fill:#BFE2F6;" d="M425.925,53.414l-1.502,4.008c-0.208,0.555-0.076,1.181,0.338,1.605l2.99,3.062
									c0.704,0.721-0.062,1.894-1.005,1.541l-4.008-1.502c-0.555-0.208-1.181-0.076-1.605,0.338l-3.062,2.99
									c-0.721,0.704-1.894-0.062-1.541-1.005l1.502-4.008c0.208-0.555,0.076-1.181-0.338-1.605l-2.99-3.062
									c-0.704-0.721,0.062-1.894,1.005-1.541l4.008,1.502c0.555,0.208,1.181,0.076,1.605-0.338l3.062-2.99
									C425.105,51.705,426.279,52.471,425.925,53.414z"/>
							</g>
						</g>
					</g>
				</g>
			</g>
		</g>
	</g>
</g>
</svg>
